<?xml version="1.0" encoding="UTF-8"?>
<svg id="Camada_2" data-name="Camada 2" xmlns="http://www.w3.org/2000/svg" viewBox="0 0 956.64 223.29">
  <defs>
    <style>
      .cls-1, .cls-2, .cls-3 {
        fill: #1c3c74;
      }

      .cls-4 {
        letter-spacing: .42em;
      }

      .cls-5 {
        letter-spacing: .07em;
      }

      .cls-6 {
        letter-spacing: .1em;
      }

      .cls-7 {
        letter-spacing: .48em;
      }

      .cls-2 {
        font-size: 65px;
      }

      .cls-2, .cls-3 {
        font-family: Verdana, Verdana;
      }

      .cls-8 {
        letter-spacing: .48em;
      }

      .cls-9 {
        letter-spacing: .48em;
      }

      .cls-3 {
        font-size: 34px;
      }

      .cls-10 {
        letter-spacing: .1em;
      }
    </style>
  </defs>
  <g id="Camada_1-2" data-name="Camada 1">
    <text class="cls-3" transform="translate(287.3 84.24)"><tspan class="cls-8" x="0" y="0">HOSPI</tspan><tspan class="cls-4" x="191.97" y="0">T</tspan><tspan class="cls-9" x="227.25" y="0">AL ISRAELI</tspan><tspan class="cls-4" x="583.74" y="0">T</tspan><tspan class="cls-7" x="619.02" y="0">A</tspan></text>
    <text class="cls-2" transform="translate(274.9 159.74)"><tspan class="cls-10" x="0" y="0">ALBE</tspan><tspan class="cls-5" x="192.28" y="0">R</tspan><tspan class="cls-6" x="242.07" y="0">T EINSTEIN</tspan></text>
    <g>
      <path class="cls-1" d="M73.47,91.45c-3.92-6.37-7.8-12.69-11.82-19.27-1.14,1.88-1.21,3.32-.1,5.05,3.19,5,6.17,10.14,9.35,15.16,.83,1.32,.85,2.19-.1,3.47-6.5,8.79-12.38,18.01-18.22,27.24-4.25,6.72-7.87,13.73-9.81,21.48-2.12,8.42,1.65,14.74,10.06,16.95,9.02,2.36,18.15,1.56,27.26,.78,6.74-.59,13.51-1.27,20.23-2.1,2.05-.26,2.84,.49,3.47,2.24,2.39,6.75,3.76,13.8,5.88,20.64,1.23,3.98,2.74,7.83,5.17,11.25,3.8,5.33,8.81,6.2,14.18,2.48,4.79-3.32,8.25-7.97,12-12.33,6.87-8.02,13.18-16.5,19.37-25.06,.71-.97,1.25-1.98,2.84-1.86,9.5,.73,18.9,1.86,27.86,5.42,9.87,3.91,12.24,13.04,5.53,21.36-15.34,19.03-35.28,30.68-58.9,35.89-33.67,7.43-64.83,1.28-92.6-19.38C22.15,183.86,7.89,160.98,2.17,132.94c-2.91-14.31-2.84-28.67-.1-43.01,.36-1.89,1.06-3.09,2.93-3.98,26.11-12.5,53.35-20.94,82.27-23.65,2.1-.19,2.95-.12,1.91,2.33-3.94,9.34-8.98,18.04-14.89,26.24-.16,.21-.43,.33-.82,.61v-.02Z"/>
      <path class="cls-1" d="M169.56,147.26c6.9-9.36,13.59-18.42,20.58-27.9,2.48,7.64,4.8,14.83,7.2,22.21,1.61-1.18,1.11-2.64,.94-3.89-.95-7.01-2.53-13.89-4.82-20.59-.54-1.58-.33-2.76,.5-4.18,4.13-6.96,8.76-13.67,11.91-21.15,2.48-5.87,4.07-11.95,2.83-18.44-1.01-5.23-3.83-9.12-8.25-11.96-8.36-5.36-17.72-7.73-27.38-9.12-5.31-.76-10.66-1.27-16-1.72-1.46-.12-2.13-.94-2.91-1.88-8.44-9.9-17.08-19.64-26.37-28.77-2.76-2.71-5.65-5.28-9.1-7.1-5.53-2.93-9.57-1.68-12.34,3.91-4.14,8.3-6.35,17.29-9.12,26.1-.88,2.78-1.02,6.3-2.86,8.13-1.86,1.86-5.51,1.04-8.37,1.41-26.13,3.28-51.69,9.08-76.57,17.76-.35,.12-.71,.17-1.6,.4,.61-1.56,1.04-2.83,1.6-4.03C23.76,35.16,47.44,14.52,80.33,4.62c58.62-17.62,121.78,16.79,139.11,75.6,7.42,25.16,6.43,49.85-3.59,74.14-.54,1.3-.83,2.27-2.76,1.68-13.73-4.13-27.65-7.31-41.99-8.4-.36-.03-.71-.17-1.56-.38h.02Z"/>
      <path class="cls-1" d="M138.33,146.15c-10.91-.03-21.85,.03-32.66,1.67-1.84,.28-2.81-.1-3.71-1.91-6.66-13.51-13.44-26.97-20.29-40.39-.83-1.61-.87-2.8,.14-4.34,7.8-12.14,14.51-24.88,20.41-38.04,.75-1.68,1.58-2.41,3.54-2.38,17.43,.36,34.8,1.16,52,4.34,1.28,.24,2.24,.62,3.07,1.68,8.79,11.36,16.64,23.27,22.8,36.29,.8,1.7,.76,3.06-.1,4.72-6.85,13.16-15.1,25.4-24.24,37.07-.8,1.02-1.6,1.34-2.84,1.32-6.02-.07-12.05-.03-18.07-.03h-.03Z"/>
      <path class="cls-1" d="M78.74,106.63c6.47,11.41,11.86,22.66,16.58,34.28,.88,2.17,1.65,4.41,2.57,6.56,.49,1.15,.17,1.48-1.01,1.55-7.99,.45-15.97,1.25-23.96,.05-7.06-1.06-9.88-5-8.69-12.07,.47-2.71,1.2-5.38,2.43-7.8,3.83-7.43,7.87-14.78,12.07-22.59l.02,.02Z"/>
      <path class="cls-1" d="M149.6,157.42c-6.31,7.29-11.69,14.45-18.48,20.31-1.2,1.04-2.55,1.95-3.95,2.69-3.61,1.96-7.11,1.41-9.55-1.87-4.04-5.42-6.07-11.82-8.55-18.02-.4-1.01,.1-1.28,1.06-1.37,12.9-1.16,25.82-1.93,39.46-1.75l.02,.02Z"/>
      <path class="cls-1" d="M108.84,50.39c.78-3.65,2.41-6.7,4.02-9.74,1.27-2.41,2.67-4.77,4.2-7.01,2.77-4.08,6.95-5.14,11.34-2.8,5.06,2.71,8.79,7.01,12.6,11.16,2.12,2.31,4.28,4.62,6.12,7.76-12.97-.47-25.5-.1-38.28,.63Z"/>
      <path class="cls-1" d="M168.41,67.55c4.47,.83,8.22,1.98,11.93,3.35,5.38,2,8.43,5.85,9.29,11.41,.94,6.01-.4,11.74-2.74,17.9-5.65-11.37-11.58-21.96-18.48-32.64v-.02Z"/>
    </g>
  </g>
</svg>