<svg width="132" height="99" viewBox="0 0 132 99" fill="none" xmlns="http://www.w3.org/2000/svg">
<path d="M3.192 68V60.048H0.056V58.2H8.596V60.048H5.46V68H3.192ZM12.2847 68.112C11.426 68.112 10.67 67.944 10.0167 67.608C9.37267 67.272 8.87334 66.8147 8.51867 66.236C8.16401 65.648 7.98667 64.9807 7.98667 64.234C7.98667 63.478 8.15934 62.8107 8.50467 62.232C8.85934 61.644 9.34001 61.1867 9.94667 60.86C10.5533 60.524 11.2393 60.356 12.0047 60.356C12.742 60.356 13.4047 60.5147 13.9927 60.832C14.59 61.14 15.0613 61.588 15.4067 62.176C15.752 62.7547 15.9247 63.45 15.9247 64.262C15.9247 64.346 15.92 64.444 15.9107 64.556C15.9013 64.6587 15.892 64.7567 15.8827 64.85H9.76467V63.576H14.7347L13.8947 63.954C13.8947 63.562 13.8153 63.2213 13.6567 62.932C13.498 62.6427 13.2787 62.4187 12.9987 62.26C12.7187 62.092 12.392 62.008 12.0187 62.008C11.6453 62.008 11.314 62.092 11.0247 62.26C10.7447 62.4187 10.5253 62.6473 10.3667 62.946C10.208 63.2353 10.1287 63.5807 10.1287 63.982V64.318C10.1287 64.7287 10.2173 65.0927 10.3947 65.41C10.5813 65.718 10.838 65.956 11.1647 66.124C11.5007 66.2827 11.8927 66.362 12.3407 66.362C12.742 66.362 13.092 66.3013 13.3907 66.18C13.6987 66.0587 13.9787 65.8767 14.2307 65.634L15.3927 66.894C15.0473 67.286 14.6133 67.5893 14.0907 67.804C13.568 68.0093 12.966 68.112 12.2847 68.112ZM17.0287 68V57.612H19.2127V68H17.0287ZM24.6276 68.112C23.769 68.112 23.013 67.944 22.3596 67.608C21.7156 67.272 21.2163 66.8147 20.8616 66.236C20.507 65.648 20.3296 64.9807 20.3296 64.234C20.3296 63.478 20.5023 62.8107 20.8476 62.232C21.2023 61.644 21.683 61.1867 22.2896 60.86C22.8963 60.524 23.5823 60.356 24.3476 60.356C25.085 60.356 25.7476 60.5147 26.3356 60.832C26.933 61.14 27.4043 61.588 27.7496 62.176C28.095 62.7547 28.2676 63.45 28.2676 64.262C28.2676 64.346 28.263 64.444 28.2536 64.556C28.2443 64.6587 28.235 64.7567 28.2256 64.85H22.1076V63.576H27.0776L26.2376 63.954C26.2376 63.562 26.1583 63.2213 25.9996 62.932C25.841 62.6427 25.6216 62.4187 25.3416 62.26C25.0616 62.092 24.735 62.008 24.3616 62.008C23.9883 62.008 23.657 62.092 23.3676 62.26C23.0876 62.4187 22.8683 62.6473 22.7096 62.946C22.551 63.2353 22.4716 63.5807 22.4716 63.982V64.318C22.4716 64.7287 22.5603 65.0927 22.7376 65.41C22.9243 65.718 23.181 65.956 23.5076 66.124C23.8436 66.2827 24.2356 66.362 24.6836 66.362C25.085 66.362 25.435 66.3013 25.7336 66.18C26.0416 66.0587 26.3216 65.8767 26.5736 65.634L27.7356 66.894C27.3903 67.286 26.9563 67.5893 26.4336 67.804C25.911 68.0093 25.309 68.112 24.6276 68.112ZM39.0177 60.356C39.615 60.356 40.1423 60.4773 40.5997 60.72C41.0663 60.9533 41.4303 61.3173 41.6917 61.812C41.9623 62.2973 42.0977 62.9227 42.0977 63.688V68H39.9137V64.024C39.9137 63.4173 39.7877 62.9693 39.5357 62.68C39.2837 62.3907 38.929 62.246 38.4717 62.246C38.1543 62.246 37.8697 62.3207 37.6177 62.47C37.3657 62.61 37.1697 62.8247 37.0297 63.114C36.8897 63.4033 36.8197 63.772 36.8197 64.22V68H34.6357V64.024C34.6357 63.4173 34.5097 62.9693 34.2577 62.68C34.015 62.3907 33.665 62.246 33.2077 62.246C32.8903 62.246 32.6057 62.3207 32.3537 62.47C32.1017 62.61 31.9057 62.8247 31.7657 63.114C31.6257 63.4033 31.5557 63.772 31.5557 64.22V68H29.3717V60.468H31.4577V62.526L31.0657 61.924C31.327 61.4107 31.6957 61.0233 32.1717 60.762C32.657 60.4913 33.2077 60.356 33.8237 60.356C34.5143 60.356 35.1163 60.5333 35.6297 60.888C36.1523 61.2333 36.4977 61.7653 36.6657 62.484L35.8957 62.274C36.1477 61.686 36.549 61.2193 37.0997 60.874C37.6597 60.5287 38.299 60.356 39.0177 60.356ZM47.498 68.112C46.6393 68.112 45.8833 67.944 45.23 67.608C44.586 67.272 44.0866 66.8147 43.732 66.236C43.3773 65.648 43.2 64.9807 43.2 64.234C43.2 63.478 43.3726 62.8107 43.718 62.232C44.0726 61.644 44.5533 61.1867 45.16 60.86C45.7666 60.524 46.4526 60.356 47.218 60.356C47.9553 60.356 48.618 60.5147 49.206 60.832C49.8033 61.14 50.2746 61.588 50.62 62.176C50.9653 62.7547 51.138 63.45 51.138 64.262C51.138 64.346 51.1333 64.444 51.124 64.556C51.1146 64.6587 51.1053 64.7567 51.096 64.85H44.978V63.576H49.948L49.108 63.954C49.108 63.562 49.0286 63.2213 48.87 62.932C48.7113 62.6427 48.492 62.4187 48.212 62.26C47.932 62.092 47.6053 62.008 47.232 62.008C46.8586 62.008 46.5273 62.092 46.238 62.26C45.958 62.4187 45.7386 62.6473 45.58 62.946C45.4213 63.2353 45.342 63.5807 45.342 63.982V64.318C45.342 64.7287 45.4306 65.0927 45.608 65.41C45.7946 65.718 46.0513 65.956 46.378 66.124C46.714 66.2827 47.106 66.362 47.554 66.362C47.9553 66.362 48.3053 66.3013 48.604 66.18C48.912 66.0587 49.192 65.8767 49.444 65.634L50.606 66.894C50.2606 67.286 49.8266 67.5893 49.304 67.804C48.7813 68.0093 48.1793 68.112 47.498 68.112ZM55.476 68.112C54.7667 68.112 54.1273 67.9533 53.558 67.636C52.9887 67.3093 52.536 66.8567 52.2 66.278C51.8733 65.6993 51.71 65.018 51.71 64.234C51.71 63.4407 51.8733 62.7547 52.2 62.176C52.536 61.5973 52.9887 61.1493 53.558 60.832C54.1273 60.5147 54.7667 60.356 55.476 60.356C56.1107 60.356 56.666 60.496 57.142 60.776C57.618 61.056 57.9867 61.4807 58.248 62.05C58.5093 62.6193 58.64 63.3473 58.64 64.234C58.64 65.1113 58.514 65.8393 58.262 66.418C58.01 66.9873 57.646 67.412 57.17 67.692C56.7033 67.972 56.1387 68.112 55.476 68.112ZM55.854 66.32C56.2087 66.32 56.5307 66.236 56.82 66.068C57.1093 65.9 57.338 65.662 57.506 65.354C57.6833 65.0367 57.772 64.6633 57.772 64.234C57.772 63.7953 57.6833 63.422 57.506 63.114C57.338 62.806 57.1093 62.568 56.82 62.4C56.5307 62.232 56.2087 62.148 55.854 62.148C55.49 62.148 55.1633 62.232 54.874 62.4C54.5847 62.568 54.3513 62.806 54.174 63.114C54.006 63.422 53.922 63.7953 53.922 64.234C53.922 64.6633 54.006 65.0367 54.174 65.354C54.3513 65.662 54.5847 65.9 54.874 66.068C55.1633 66.236 55.49 66.32 55.854 66.32ZM57.828 68V66.46L57.87 64.22L57.73 61.994V57.612H59.914V68H57.828ZM61.5853 68V60.468H63.7693V68H61.5853ZM62.6773 59.418C62.276 59.418 61.9493 59.3013 61.6973 59.068C61.4453 58.8347 61.3193 58.5453 61.3193 58.2C61.3193 57.8547 61.4453 57.5653 61.6973 57.332C61.9493 57.0987 62.276 56.982 62.6773 56.982C63.0787 56.982 63.4053 57.094 63.6573 57.318C63.9093 57.5327 64.0353 57.8127 64.0353 58.158C64.0353 58.522 63.9093 58.8253 63.6573 59.068C63.4147 59.3013 63.088 59.418 62.6773 59.418ZM69.0863 68.112C68.2743 68.112 67.5509 67.9487 66.9163 67.622C66.2816 67.286 65.7823 66.824 65.4183 66.236C65.0636 65.648 64.8863 64.9807 64.8863 64.234C64.8863 63.478 65.0636 62.8107 65.4183 62.232C65.7823 61.644 66.2816 61.1867 66.9163 60.86C67.5509 60.524 68.2743 60.356 69.0863 60.356C69.8796 60.356 70.5703 60.524 71.1583 60.86C71.7463 61.1867 72.1803 61.658 72.4603 62.274L70.7663 63.184C70.5703 62.8293 70.3229 62.568 70.0243 62.4C69.7349 62.232 69.4176 62.148 69.0723 62.148C68.6989 62.148 68.3629 62.232 68.0643 62.4C67.7656 62.568 67.5276 62.806 67.3503 63.114C67.1823 63.422 67.0983 63.7953 67.0983 64.234C67.0983 64.6727 67.1823 65.046 67.3503 65.354C67.5276 65.662 67.7656 65.9 68.0643 66.068C68.3629 66.236 68.6989 66.32 69.0723 66.32C69.4176 66.32 69.7349 66.2407 70.0243 66.082C70.3229 65.914 70.5703 65.648 70.7663 65.284L72.4603 66.208C72.1803 66.8147 71.7463 67.286 71.1583 67.622C70.5703 67.9487 69.8796 68.112 69.0863 68.112ZM73.3267 68V60.468H75.5107V68H73.3267ZM74.4187 59.418C74.0174 59.418 73.6907 59.3013 73.4387 59.068C73.1867 58.8347 73.0607 58.5453 73.0607 58.2C73.0607 57.8547 73.1867 57.5653 73.4387 57.332C73.6907 57.0987 74.0174 56.982 74.4187 56.982C74.8201 56.982 75.1467 57.094 75.3987 57.318C75.6507 57.5327 75.7767 57.8127 75.7767 58.158C75.7767 58.522 75.6507 58.8253 75.3987 59.068C75.1561 59.3013 74.8294 59.418 74.4187 59.418ZM81.7657 60.356C82.363 60.356 82.895 60.4773 83.3617 60.72C83.8377 60.9533 84.211 61.3173 84.4817 61.812C84.7524 62.2973 84.8877 62.9227 84.8877 63.688V68H82.7037V64.024C82.7037 63.4173 82.5684 62.9693 82.2977 62.68C82.0364 62.3907 81.663 62.246 81.1777 62.246C80.8324 62.246 80.5197 62.3207 80.2397 62.47C79.969 62.61 79.7544 62.8293 79.5957 63.128C79.4464 63.4267 79.3717 63.8093 79.3717 64.276V68H77.1877V60.468H79.2737V62.554L78.8817 61.924C79.1524 61.42 79.5397 61.0327 80.0437 60.762C80.5477 60.4913 81.1217 60.356 81.7657 60.356ZM91.1374 68V66.53L90.9974 66.208V63.576C90.9974 63.1093 90.8527 62.7453 90.5634 62.484C90.2834 62.2227 89.8494 62.092 89.2614 62.092C88.86 62.092 88.4634 62.1573 88.0714 62.288C87.6887 62.4093 87.362 62.5773 87.0914 62.792L86.3074 61.266C86.718 60.9767 87.2127 60.7527 87.7914 60.594C88.37 60.4353 88.958 60.356 89.5554 60.356C90.7034 60.356 91.5947 60.6267 92.2294 61.168C92.864 61.7093 93.1814 62.554 93.1814 63.702V68H91.1374ZM88.8414 68.112C88.2534 68.112 87.7494 68.014 87.3294 67.818C86.9094 67.6127 86.5874 67.3373 86.3634 66.992C86.1394 66.6467 86.0274 66.2593 86.0274 65.83C86.0274 65.382 86.1347 64.99 86.3494 64.654C86.5734 64.318 86.9234 64.0567 87.3994 63.87C87.8754 63.674 88.496 63.576 89.2614 63.576H91.2634V64.85H89.4994C88.986 64.85 88.6314 64.934 88.4354 65.102C88.2487 65.27 88.1554 65.48 88.1554 65.732C88.1554 66.012 88.2627 66.236 88.4774 66.404C88.7014 66.5627 89.0047 66.642 89.3874 66.642C89.7514 66.642 90.078 66.558 90.3674 66.39C90.6567 66.2127 90.8667 65.956 90.9974 65.62L91.3334 66.628C91.1747 67.1133 90.8854 67.482 90.4654 67.734C90.0454 67.986 89.504 68.112 88.8414 68.112Z" fill="#294780"/>
<g clip-path="url(#clip0_254_533)">
<path d="M96.665 42.5856C96.665 43.2236 96.665 43.8665 96.665 44.5045C96.665 46.7592 96.6554 49.014 96.6745 51.2687C96.6745 51.9163 96.4636 52.2761 95.7589 52.2665C94.5077 52.2473 93.2566 52.2473 92.0054 52.2665C91.3774 52.2761 91.1809 51.9211 91.1809 51.379C91.1713 43.5834 91.1089 35.7878 91.1904 27.9922C91.2192 25.2577 91.037 25.7375 93.3908 25.7279C96.1424 25.7183 98.9084 25.4592 101.636 25.9198C104.925 26.4763 107.561 28.1169 108.712 31.3695C109.91 34.7468 109.627 38.0282 107.216 40.9113C106.559 41.6981 105.725 42.245 104.814 42.6719C104.167 42.9742 103.999 43.2332 104.469 43.924C106.109 46.3227 107.662 48.7837 109.249 51.2207C109.416 51.4798 109.671 51.7388 109.498 52.0698C109.311 52.42 108.942 52.2713 108.649 52.2761C107.211 52.2809 105.768 52.2617 104.33 52.2761C103.606 52.2857 103.108 52.0123 102.705 51.3886C100.999 48.7357 99.2536 46.102 97.5182 43.4635C97.3121 43.1517 97.0964 42.8494 96.8855 42.5472C96.8136 42.5616 96.7417 42.5808 96.6698 42.5952L96.665 42.5856ZM96.7273 34.7996H96.7321C96.7321 35.6775 96.7512 36.5506 96.7273 37.4237C96.7081 38.0521 96.9526 38.3592 97.5949 38.3496C98.5297 38.3304 99.4741 38.3832 100.404 38.3112C102.192 38.1769 103.367 36.9584 103.602 35.0874C103.798 33.5187 102.897 32.1371 101.286 31.5566C100.045 31.1104 98.7646 31.216 97.4847 31.2832C96.9238 31.3119 96.7081 31.5278 96.7225 32.0795C96.7464 32.9862 96.7273 33.8929 96.7273 34.7996Z" fill="#1787C6"/>
<path d="M112.058 39.1555C112.058 35.1498 112.058 31.1489 112.058 27.1431C112.058 25.8958 112.135 25.8095 113.391 25.8287C115.826 25.8622 118.271 25.656 120.696 25.9582C128.218 26.9032 132.978 33.6099 131.823 41.0121C131.262 44.6053 129.704 47.594 126.756 49.7576C124.991 51.048 122.988 51.8348 120.807 52.0987C118.16 52.4201 115.5 52.257 112.844 52.3145C112 52.3337 112.058 51.8012 112.058 51.2639C112.058 47.2294 112.058 43.1901 112.058 39.1555ZM117.633 39.0068C117.633 41.1032 117.633 43.2045 117.633 45.3009C117.633 46.7785 117.633 46.6921 119.133 46.6873C123.419 46.6777 126.549 43.0701 126.329 38.9157C126.089 34.3678 123.338 31.4607 118.769 31.3072C117.882 31.2784 117.619 31.5998 117.628 32.4345C117.662 34.6269 117.638 36.8193 117.638 39.0068H117.633Z" fill="#1787C6"/>
<path d="M22.2125 38.9828C22.2125 34.9435 22.2365 30.909 22.1934 26.8696C22.1838 26.0637 22.4474 25.867 23.2049 25.8862C25.0792 25.9342 26.9584 25.8862 28.8328 25.9054C32.0734 25.9438 34.9017 28.4719 35.314 31.6861C35.3859 32.2426 35.4578 32.8183 35.2133 33.3508C34.8298 34.1999 35.1798 34.6413 35.9324 35.0634C38.2813 36.3779 39.8729 38.3256 40.405 41.0073C41.5939 46.9559 37.3705 52.1322 31.2824 52.1994C28.5931 52.2282 25.9038 52.1754 23.2144 52.2186C22.4283 52.2282 22.1934 51.9691 22.203 51.2015C22.2317 47.1334 22.2173 43.0653 22.2173 38.9924H22.2125V38.9828ZM27.6104 43.0749C27.6104 43.0749 27.6104 43.0749 27.6056 43.0749C27.6056 44.044 27.6104 45.013 27.6056 45.9821C27.6008 46.5577 27.8261 46.836 28.4445 46.812C29.4128 46.7688 30.3812 46.812 31.3447 46.7688C32.3322 46.7257 33.267 46.4666 33.9909 45.7422C35.0407 44.6964 35.4914 43.4395 35.0743 41.9859C34.7196 40.7386 33.9669 39.784 32.6007 39.5921C31.2105 39.3954 29.8059 39.3906 28.3965 39.4721C27.7877 39.5057 27.5864 39.784 27.6008 40.3596C27.6247 41.2663 27.6056 42.173 27.6056 43.0797L27.6104 43.0749ZM28.526 34.1663C29.5758 34.1663 30.2326 33.6242 30.2517 32.7415C30.2709 31.95 29.4703 31.2352 28.5499 31.2208C27.9555 31.2112 27.548 31.3119 27.5672 32.0939C27.6151 34.1615 27.5864 34.1663 28.526 34.1663Z" fill="#294780"/>
<path d="M1.01923 38.9684C1.01923 34.9291 1.0432 30.8898 1.00006 26.8505C0.990471 26.0589 1.20619 25.8334 1.98758 25.8766C3.17165 25.939 4.3653 25.915 5.55416 25.867C6.28761 25.8382 6.55607 26.1069 6.55127 26.8409C6.5273 29.6569 6.57045 32.4777 6.53689 35.2937C6.5273 36.0517 6.73344 36.3347 7.53879 36.3107C9.44672 36.2532 11.3594 36.258 13.2626 36.3107C14.0584 36.3347 14.2741 36.0469 14.2693 35.2937C14.2453 32.6312 14.2693 29.9687 14.2837 27.311C14.2932 25.9198 14.3508 25.867 15.6834 25.8718C16.623 25.8718 17.5626 25.915 18.4974 25.8526C19.3938 25.7951 19.6 26.1836 19.5952 27.0136C19.5712 34.1519 19.5808 41.2951 19.5856 48.4335C19.5856 49.4361 19.5808 50.4388 19.6239 51.4414C19.6527 52.0603 19.4034 52.2713 18.7994 52.2569C17.5818 52.2282 16.3594 52.2282 15.137 52.2569C14.485 52.2713 14.2693 52.0027 14.2741 51.3598C14.2932 48.4767 14.2549 45.5983 14.2932 42.7151C14.3028 41.9428 14.0823 41.6693 13.2913 41.6885C11.3834 41.7365 9.47549 41.7317 7.56756 41.6885C6.79096 41.6693 6.5321 41.914 6.54168 42.6959C6.58003 45.4832 6.5273 48.2704 6.57045 51.0576C6.58483 51.9931 6.28282 52.3385 5.32885 52.2713C4.17834 52.1898 3.01345 52.2282 1.85815 52.2474C1.22537 52.2617 1.00965 52.0411 1.01444 51.3742C1.048 47.239 1.02882 43.1085 1.02882 38.9732L1.01923 38.9684Z" fill="#294780"/>
<path d="M18.7946 10.7747C18.785 9.25879 19.6047 8.06906 20.9278 7.53656C22.2605 7.00406 23.6603 7.18635 24.4465 8.23217C27.6391 12.4874 32.0446 14.9052 36.8959 16.7186C41.1193 18.2921 45.357 18.5512 49.657 17.1216C53.7557 15.7591 57.6051 13.9457 60.8074 10.9522C61.6367 10.1799 62.3078 9.27798 63.0461 8.42885C63.9809 7.34946 65.1793 6.99446 66.5168 7.44061C67.907 7.90115 68.7363 8.90858 68.8993 10.3957C69.0575 11.8685 68.1419 13.183 66.7469 13.7299C63.8802 14.8572 60.817 15.3226 57.9455 16.4691C52.0539 18.8198 46.7088 21.9284 42.5622 26.8457C41.7329 27.8291 41.0234 28.8941 40.3283 29.9735C40.1509 30.2518 40.0071 30.6691 39.6092 30.6164C39.1922 30.5636 39.3504 30.1174 39.2593 29.844C37.8547 25.4832 35.7167 21.631 32.035 18.7047C29.293 16.5267 26.2058 15.2506 22.8645 14.4495C22.04 14.2528 21.2394 14.0033 20.4964 13.5812C19.365 12.9335 18.7658 11.9884 18.7946 10.7843V10.7747Z" fill="#294780"/>
<path d="M41.8863 39.3906C41.7665 32.5209 46.1336 27.5605 51.8622 26.0925C56.2917 24.9555 60.4095 26.0733 63.9953 28.9805C64.5562 29.4362 64.6185 29.8392 64.0672 30.3573C63.2043 31.1728 62.3606 32.0123 61.5409 32.8711C61.0855 33.346 60.7115 33.3748 60.1794 32.9478C57.2073 30.578 53.1853 30.53 50.2227 32.9238C47.7299 34.9387 46.9198 37.7163 47.5094 40.7578C48.0895 43.7609 50.0597 45.7182 52.9983 46.5961C55.5582 47.3589 57.9599 46.9895 60.0644 45.2817C60.7307 44.7444 61.2053 44.8451 61.7422 45.4304C62.4805 46.2315 63.257 47.0039 64.0432 47.7619C64.5658 48.2656 64.5562 48.6206 63.9809 49.1291C57.7921 54.574 47.9217 53.0053 43.7415 45.9005C42.5431 43.8617 41.824 41.6981 41.8863 39.3906Z" fill="#1787C6"/>
<path d="M86.3247 52.2042C84.2299 52.7223 82.9835 51.9259 82.4945 49.8199C82.1829 48.4719 81.2769 48.1025 79.9154 48.1792C77.8253 48.2944 75.7257 48.1936 73.6308 48.1601C73.0843 48.1505 72.7631 48.3519 72.5522 48.8605C72.1878 49.7576 71.766 50.6355 71.3873 51.5278C71.1764 52.0219 70.8504 52.2282 70.2991 52.2138C68.9568 52.1802 67.6098 52.1994 66.2627 52.209C65.5389 52.2138 65.2944 51.9979 65.6299 51.2495C66.8572 48.5151 68.0029 45.7374 69.2636 43.0269C71.6701 37.8459 73.904 32.5832 76.3057 27.3973C76.4831 27.0136 76.6029 26.6106 76.8234 26.2316C77.3172 25.3729 77.5569 25.7039 77.8349 26.3323C78.2999 27.3926 78.7553 28.4528 79.2299 29.5034C80.5386 32.4105 81.8617 35.3177 83.1656 38.2296C85.0688 42.4705 86.9671 46.7113 88.8511 50.9569C89.3688 52.1226 89.3017 52.2042 88.0074 52.2042C87.4465 52.2042 86.8808 52.2042 86.32 52.2042H86.3247ZM77.346 38.4503C76.6605 40.0478 76.09 41.3959 75.5099 42.7391C75.3517 43.1037 75.3709 43.3484 75.8503 43.3484C76.7899 43.3484 77.7247 43.358 78.6643 43.334C79.1293 43.3244 79.3689 43.1277 79.1436 42.6096C78.5684 41.2999 78.0123 39.9855 77.3508 38.4455L77.346 38.4503Z" fill="#1787C6"/>
<path d="M50.9945 7.18634C51.0904 11.1825 47.8977 14.3583 43.9524 14.4303C39.94 14.5022 36.6706 11.2784 36.6515 7.30147C36.6323 3.20938 39.7722 0.0335672 43.8805 -1.39025e-05C47.797 -0.033595 50.9753 3.18059 50.9945 7.18154V7.18634Z" fill="#1787C6"/>
</g>
<defs>
<clipPath id="clip0_254_533">
<rect width="131" height="71" fill="white" transform="translate(1)"/>
</clipPath>
</defs>
</svg>
