<svg width="195" height="48" viewBox="0 0 195 48" fill="none" xmlns="http://www.w3.org/2000/svg">
<g clip-path="url(#clip0_249_533)">
<path d="M15.7906 19.6576C14.9484 18.2879 14.1135 16.9293 13.2489 15.5148C13.0029 15.9179 12.988 16.2277 13.2266 16.6009C13.9123 17.6758 14.5533 18.7805 15.2353 19.8591C15.4142 20.1428 15.4179 20.3294 15.213 20.6056C13.8154 22.4941 12.552 24.4759 11.296 26.4614C10.383 27.9058 9.60405 29.4136 9.18665 31.0782C8.73197 32.8883 9.5407 34.2468 11.3482 34.7208C13.2862 35.2284 15.2502 35.0567 17.2068 34.8887C18.6566 34.7619 20.11 34.6163 21.5561 34.4371C21.9958 34.3812 22.1673 34.5417 22.3014 34.9186C22.8157 36.3704 23.1102 37.8857 23.5648 39.3562C23.8294 40.2109 24.1537 41.0394 24.6754 41.7747C25.4916 42.9205 26.5687 43.1071 27.724 42.3084C28.7526 41.5955 29.498 40.5953 30.303 39.6585C31.7788 37.9342 33.1354 36.1129 34.4659 34.2729C34.6187 34.0639 34.7342 33.8475 35.0771 33.8736C37.1194 34.0303 39.1393 34.2729 41.0661 35.038C43.1867 35.8778 43.6973 37.8409 42.255 39.6287C38.9567 43.7192 34.6709 46.2235 29.5949 47.3431C22.3573 48.9405 15.6602 47.6193 9.68977 43.178C4.75915 39.5204 1.69568 34.6014 0.465816 28.5738C-0.160295 25.4985 -0.145388 22.412 0.443455 19.3291C0.521719 18.9223 0.670793 18.6648 1.07329 18.4745C6.68593 15.7873 12.5408 13.9734 18.7572 13.3912C19.2081 13.3501 19.3908 13.3651 19.1672 13.8913C18.3212 15.8992 17.2366 17.7691 15.9658 19.5307C15.9322 19.5755 15.8726 19.6016 15.7906 19.6613V19.6576Z" fill="#1C3C74"/>
<path d="M36.4448 31.6529C37.9281 29.6413 39.3666 27.693 40.8686 25.6553C41.4015 27.2974 41.9009 28.8426 42.4152 30.4288C42.7618 30.175 42.6537 29.8615 42.6165 29.5927C42.4115 28.0849 42.0723 26.607 41.5804 25.1663C41.4649 24.8267 41.5096 24.5729 41.6885 24.2669C42.5755 22.7702 43.5705 21.3296 44.2488 19.721C44.7818 18.4595 45.1246 17.1533 44.8563 15.7574C44.6401 14.634 44.0327 13.798 43.0823 13.1859C41.286 12.0327 39.2735 11.5251 37.1976 11.2265C36.0572 11.0623 34.9056 10.9541 33.7577 10.857C33.4447 10.8309 33.2993 10.6555 33.1316 10.4539C31.3166 8.32658 29.4607 6.23281 27.4631 4.26967C26.8705 3.68744 26.2481 3.13507 25.5065 2.74319C24.3176 2.11245 23.4493 2.38117 22.853 3.58294C21.9622 5.36694 21.4889 7.30022 20.8926 9.19246C20.7026 9.78961 20.6728 10.5472 20.2777 10.9391C19.8789 11.3385 19.0926 11.1631 18.4776 11.2414C12.8613 11.9468 7.3679 13.1934 2.01987 15.0595C1.94534 15.0856 1.86707 15.0968 1.677 15.1453C1.80744 14.8094 1.90061 14.537 2.01987 14.2795C5.1057 7.55775 10.1966 3.12014 17.2664 0.992783C29.8669 -2.79541 43.4438 4.60183 47.1669 17.2428C48.762 22.6508 48.5496 27.958 46.3955 33.1794C46.2799 33.4593 46.2166 33.6683 45.8029 33.5414C42.8512 32.6532 39.8586 31.9702 36.7765 31.735C36.6982 31.7276 36.6237 31.6977 36.4411 31.6529H36.4448Z" fill="#1C3C74"/>
<path d="M29.7327 31.4141C27.3886 31.4066 25.0369 31.4215 22.7114 31.7723C22.3163 31.8321 22.1076 31.75 21.9138 31.3618C20.4827 28.4581 19.0255 25.5657 17.5534 22.6807C17.3745 22.3336 17.3671 22.0798 17.5832 21.7476C19.2603 19.1388 20.7026 16.3994 21.9697 13.5703C22.13 13.2083 22.3089 13.0516 22.73 13.059C26.4755 13.1374 30.2098 13.3091 33.9068 13.9921C34.1826 14.0443 34.3876 14.1264 34.5665 14.3541C36.456 16.795 38.1442 19.3553 39.4673 22.1544C39.6387 22.5202 39.6313 22.8113 39.4449 23.1696C37.9728 25.9986 36.1988 28.6298 34.2348 31.1379C34.0633 31.3581 33.8919 31.4253 33.6236 31.4215C32.3304 31.4066 31.0334 31.4141 29.7402 31.4141H29.7327Z" fill="#1C3C74"/>
<path d="M16.9235 22.9195C18.3137 25.3716 19.4727 27.7901 20.4864 30.2869C20.6765 30.7535 20.8405 31.2349 21.038 31.6977C21.1423 31.944 21.0752 32.0149 20.8218 32.0299C19.1037 32.1269 17.3894 32.2986 15.6713 32.0411C14.1545 31.8134 13.547 30.9662 13.8042 29.4472C13.9048 28.865 14.0613 28.2902 14.3259 27.7714C15.1496 26.174 16.0179 24.5953 16.9198 22.9158L16.9235 22.9195Z" fill="#1C3C74"/>
<path d="M32.1552 33.8363C30.7986 35.4038 29.6433 36.9415 28.1824 38.2029C27.9252 38.4269 27.6345 38.621 27.3326 38.7814C26.5575 39.2032 25.8046 39.0837 25.2792 38.3784C24.4108 37.2139 23.9748 35.8367 23.4418 34.5043C23.3561 34.2878 23.4642 34.2281 23.6691 34.2095C26.4419 33.9594 29.2184 33.7952 32.1515 33.8325L32.1552 33.8363Z" fill="#1C3C74"/>
<path d="M23.3934 10.8309C23.5611 10.0471 23.9115 9.39026 24.2581 8.73712C24.5301 8.21834 24.832 7.71076 25.16 7.22931C25.7563 6.35224 26.6544 6.12457 27.5973 6.62842C28.6856 7.21064 29.4868 8.13623 30.3067 9.02823C30.7614 9.52462 31.2273 10.021 31.6223 10.6965C28.8346 10.5958 26.1401 10.6741 23.3934 10.8309Z" fill="#1C3C74"/>
<path d="M36.1989 14.5183C37.1604 14.6975 37.9654 14.9438 38.7629 15.2386C39.9183 15.6678 40.5742 16.4964 40.7605 17.6907C40.9618 18.982 40.6748 20.2137 40.1717 21.5386C38.9567 19.094 37.6821 16.8174 36.1989 14.522V14.5183Z" fill="#1C3C74"/>
<path d="M141.699 24.2967C141.699 26.8197 141.699 29.0515 141.699 31.2834C141.699 31.7499 141.837 32.2165 141.028 32.2276C140.238 32.2388 140.327 31.8134 140.327 31.3207C140.331 28.529 140.323 25.7336 140.338 22.9419C140.338 22.6396 140.115 22.1357 140.618 22.0723C141.117 22.0088 141.669 21.8558 142.083 22.4604C143.342 24.3154 144.654 26.1367 145.947 27.9692C146.346 28.5365 146.76 29.0926 147.397 29.6188C147.397 28.8761 147.397 28.1334 147.397 27.387C147.397 25.8792 147.404 24.3676 147.39 22.8598C147.386 22.3709 147.382 22.0088 148.072 22.0088C148.727 22.0088 148.783 22.2962 148.78 22.8262C148.761 25.6179 148.78 28.4133 148.757 31.205C148.757 31.5297 149.044 32.0821 148.467 32.1642C147.937 32.2388 147.356 32.3545 146.931 31.7201C145.824 30.0704 144.65 28.4656 143.502 26.8421C142.958 26.0695 142.41 25.3007 141.695 24.293L141.699 24.2967Z" fill="#294473"/>
<path d="M187.889 24.614C187.889 26.8533 187.886 29.0964 187.893 31.3357C187.893 31.8358 187.96 32.2314 187.189 32.2314C186.372 32.2314 186.525 31.7537 186.525 31.2946C186.525 28.5701 186.51 25.8419 186.54 23.1173C186.54 22.7628 186.227 22.1918 186.835 22.0649C187.416 21.9454 187.979 21.9604 188.415 22.6135C189.749 24.6102 191.161 26.5547 192.544 28.5179C192.835 28.9284 193.133 29.3315 193.606 29.9809C193.606 27.7565 193.606 25.8269 193.606 23.8936C193.606 23.4756 193.64 23.0576 193.606 22.6434C193.558 22.0835 193.86 22.0238 194.307 22.0275C194.758 22.0275 195.004 22.0985 195 22.6546C194.974 25.6366 194.989 28.6186 194.981 31.6007C194.981 31.8321 195.09 32.1904 194.691 32.1829C194.15 32.1717 193.569 32.3807 193.144 31.7425C192.074 30.1451 190.945 28.5925 189.838 27.0212C189.253 26.1927 188.668 25.3604 188.083 24.5319C188.02 24.558 187.953 24.5878 187.889 24.614Z" fill="#294473"/>
<path d="M106.786 32.112C105.619 32.3807 104.889 32.112 104.307 31.1677C103.67 30.1376 102.809 29.2494 102.127 28.2417C101.661 27.5512 101.028 27.7154 100.413 27.7341C100.021 27.7453 100.133 28.0998 100.133 28.3275C100.118 29.3837 100.073 30.4474 100.141 31.4999C100.193 32.3023 99.7008 32.1605 99.2238 32.2015C98.6536 32.2501 98.4486 32.0821 98.4523 31.4663C98.4859 28.5813 98.4859 25.6963 98.4523 22.8113C98.4449 22.147 98.6797 22.0014 99.2834 22.0275C100.372 22.0686 101.46 22.0313 102.548 22.0425C103.931 22.0574 105.041 22.8076 105.366 23.9347C105.708 25.129 105.254 26.23 103.946 26.9802C103.279 27.3609 103.193 27.5885 103.707 28.1969C104.758 29.4322 105.716 30.746 106.782 32.112H106.786ZM100.122 24.8304C100.122 26.9317 100.349 27.1705 102.004 26.7749C103.029 26.5323 103.908 25.3343 103.793 24.3452C103.685 23.4234 103.007 22.9606 101.736 22.9419C100.662 22.927 100.124 23.5565 100.122 24.8304Z" fill="#294473"/>
<path d="M83.3921 26.8346C83.8877 27.1257 84.3201 27.3422 84.7077 27.6221C85.5052 28.1894 86.0754 28.85 85.8108 29.9622C85.5462 31.0856 84.9126 31.7611 83.7871 32C82.3262 32.3098 80.8466 32.1082 79.3783 32.1754C79.0466 32.1903 78.9236 32.0485 78.9236 31.7276C78.9273 28.6783 78.931 25.6291 78.9236 22.5799C78.9236 22.1582 79.1025 22.0201 79.5012 22.0313C80.6528 22.0611 81.8119 22.0163 82.9598 22.1022C84.335 22.2067 85.1288 22.83 85.3599 23.8115C85.6058 24.864 85.0803 25.8419 83.8803 26.5622C83.7461 26.6443 83.6045 26.7152 83.3958 26.8309L83.3921 26.8346ZM80.3771 29.2382C80.3771 31.3319 80.7497 31.6044 82.8442 31.052C82.9076 31.0371 82.9709 31.0296 83.0306 31.011C83.6194 30.8281 84.0517 30.4735 84.1635 29.8428C84.2791 29.1785 84.1524 28.5738 83.6045 28.1148C83.2057 27.7789 82.7436 27.5624 82.2479 27.4392C80.664 27.0399 80.3771 27.2638 80.3771 28.8612C80.3771 28.9881 80.3771 29.115 80.3771 29.2456V29.2382ZM80.3771 24.6625C80.3771 25.0805 80.3808 25.4948 80.3771 25.9128C80.3733 26.1927 80.3957 26.439 80.7646 26.4241C81.428 26.398 82.1063 26.5286 82.7511 26.23C83.5747 25.8493 83.9772 25.241 83.8579 24.3191C83.7387 23.3711 83.0716 23.0539 82.2517 22.9569C80.3771 22.7329 80.3771 22.7404 80.3771 24.6625Z" fill="#294473"/>
<path d="M66.8746 32.1082C65.1789 32.2538 65.0709 32.2874 64.5789 30.8542C64.128 29.5367 63.3938 29.003 62.0521 29.2755C61.9887 29.2867 61.9217 29.2867 61.862 29.2755C59.8719 28.9321 58.4147 29.3874 57.9712 31.6604C57.7886 32.6009 56.9128 32.0112 56.3612 32.1866C56.1525 31.7574 56.4395 31.47 56.5662 31.1789C57.7662 28.3835 59.0035 25.6067 60.2036 22.8113C60.4309 22.285 60.6881 22.0126 61.3216 22.02C61.9477 22.0238 62.2794 22.1805 62.5552 22.7852C63.9491 25.8754 65.4025 28.9396 66.8784 32.1082H66.8746ZM61.344 23.1546C60.7216 24.8192 60.1738 26.2748 59.6296 27.7341C59.4806 28.1371 59.7526 28.1483 60.0284 28.1483C61.0794 28.1483 62.1341 28.1483 63.3267 28.1483C62.667 26.4838 62.0521 24.9312 61.344 23.1546Z" fill="#294473"/>
<path d="M175.43 32.168C174.502 32.168 173.574 32.1456 172.646 32.1792C172.184 32.1941 172.043 32.0411 172.046 31.582C172.061 28.6 172.061 25.6179 172.046 22.6359C172.046 22.1806 172.199 22.0238 172.658 22.0275C174.417 22.0499 176.179 22.0462 177.938 22.0275C178.334 22.0275 178.527 22.1246 178.527 22.5575C178.527 23.0651 178.192 23.0016 177.871 23.0016C176.686 23.0016 175.501 23.024 174.32 22.9942C173.787 22.9792 173.615 23.1435 173.6 23.6958C173.518 26.3942 173.504 26.3905 176.135 26.3942C176.519 26.3942 176.902 26.4091 177.286 26.3905C177.655 26.3718 177.797 26.5174 177.804 26.8869C177.812 27.2862 177.622 27.3683 177.275 27.3646C176.284 27.3534 175.289 27.3907 174.297 27.3497C173.742 27.3273 173.578 27.5213 173.6 28.0551C173.638 28.8873 173.638 29.7234 173.6 30.5556C173.578 31.0781 173.787 31.2013 174.271 31.1901C175.583 31.1603 176.895 31.1827 178.211 31.1789C178.561 31.1789 178.911 31.1005 178.919 31.6716C178.926 32.2538 178.565 32.1605 178.222 32.1605C177.294 32.1605 176.366 32.1605 175.438 32.1605L175.43 32.168Z" fill="#294473"/>
<path d="M126.057 27.0772C126.057 25.6366 126.072 24.1922 126.05 22.7516C126.042 22.2291 126.184 22.0163 126.75 22.0275C128.479 22.0611 130.205 22.0462 131.934 22.0312C132.307 22.0312 132.531 22.076 132.538 22.5351C132.542 23.0352 132.247 23.0091 131.912 23.0054C130.727 22.9979 129.542 23.0315 128.36 22.9904C127.76 22.968 127.57 23.1845 127.607 23.763C127.648 24.4012 127.667 25.0506 127.604 25.6851C127.54 26.3308 127.824 26.4278 128.371 26.4091C129.299 26.3718 130.227 26.3979 131.155 26.4017C131.472 26.4017 131.789 26.3345 131.8 26.8533C131.811 27.4019 131.494 27.3795 131.122 27.3758C130.194 27.3683 129.266 27.3944 128.338 27.3646C127.835 27.3459 127.57 27.443 127.604 28.0326C127.652 28.8649 127.648 29.701 127.604 30.5295C127.574 31.1117 127.824 31.2162 128.334 31.205C129.612 31.1752 130.894 31.1901 132.173 31.1976C132.497 31.1976 132.881 31.0632 132.903 31.6566C132.926 32.3135 132.497 32.1754 132.139 32.1754C130.38 32.1829 128.617 32.1418 126.858 32.1978C126.139 32.2202 126.02 31.9477 126.038 31.317C126.079 29.91 126.053 28.4954 126.053 27.0884L126.057 27.0772Z" fill="#294473"/>
<path d="M88.9824 27.066C88.9824 25.6216 89.0047 24.181 88.9712 22.7366C88.96 22.1917 89.1277 22.0163 89.6793 22.0238C91.375 22.0536 93.0744 22.0387 94.7702 22.0313C95.1503 22.0313 95.4708 22.0201 95.4559 22.5612C95.441 23.0688 95.1168 23.0091 94.7963 23.0091C93.6447 23.0091 92.4893 23.0389 91.3377 22.9979C90.7303 22.9755 90.4619 23.1323 90.5178 23.7929C90.5849 24.6177 90.2607 25.6926 90.6706 26.2113C91.1067 26.7637 92.2285 26.3382 93.0484 26.3905C93.3987 26.4129 93.7527 26.4017 94.1068 26.3905C94.4459 26.383 94.7329 26.3793 94.7404 26.8682C94.7478 27.3497 94.4795 27.3646 94.1292 27.3609C93.2012 27.3534 92.2695 27.3907 91.3415 27.3497C90.7526 27.3235 90.4657 27.443 90.5178 28.1185C90.5775 28.8836 90.5626 29.6599 90.5178 30.425C90.4843 30.9998 90.6371 31.2162 91.252 31.1938C92.5303 31.1453 93.8124 31.1752 95.0944 31.1826C95.4224 31.1826 95.81 31.0595 95.8286 31.6454C95.851 32.3023 95.4149 32.1605 95.0571 32.1605C93.2943 32.1679 91.5353 32.1381 89.7725 32.1754C89.1613 32.1866 88.9376 32.0373 88.96 31.3879C89.0085 29.9473 88.9749 28.5029 88.9749 27.0585H88.9786L88.9824 27.066Z" fill="#294473"/>
<path d="M157.728 23.289C156.882 23.0315 156.058 22.6508 155.138 22.7292C154.418 22.7926 153.692 22.8598 153.412 23.6734C153.121 24.5169 153.625 25.073 154.202 25.5694C154.646 25.9501 155.182 26.1628 155.708 26.4017C156.349 26.6928 156.986 26.9839 157.527 27.4542C159.133 28.8612 158.801 31.1192 156.841 31.9515C155.35 32.586 153.826 32.4068 152.324 32C151.541 31.7873 152.063 31.1565 151.925 30.6713C152.939 30.9699 153.815 31.5223 154.847 31.3991C155.749 31.2909 156.684 31.1565 157.057 30.1824C157.374 29.3576 156.83 28.4955 155.738 27.8908C154.985 27.4728 154.191 27.122 153.461 26.6629C152.178 25.8568 151.664 24.7856 151.962 23.722C152.227 22.7777 153.595 21.8111 154.825 21.7849C155.525 21.77 156.226 21.8894 156.927 21.9604C157.732 22.0425 158.078 22.4269 157.724 23.289H157.728Z" fill="#294473"/>
<path d="M164.999 21.9827C166.408 21.9827 167.816 21.9865 169.225 21.9827C169.602 21.9827 169.948 21.9678 169.918 22.5053C169.892 23.024 169.512 22.9009 169.218 22.9046C168.416 22.9158 167.611 22.9606 166.818 22.8934C165.979 22.8225 165.666 23.0352 165.692 23.9608C165.763 26.3606 165.722 28.7679 165.711 31.1715C165.711 31.6342 165.931 32.1829 165.04 32.2015C164.16 32.2202 164.332 31.7014 164.328 31.2162C164.324 28.7157 164.306 26.2151 164.343 23.7182C164.35 23.1061 164.224 22.8598 163.568 22.9009C162.61 22.9569 161.648 22.9158 160.687 22.9158C160.359 22.9158 160.035 22.9457 160.031 22.453C160.031 21.9678 160.34 21.979 160.679 21.9827C162.118 21.9827 163.56 21.9827 164.999 21.9827Z" fill="#294473"/>
<path d="M112.756 21.979C114.194 21.979 115.637 21.979 117.075 21.979C117.411 21.979 117.701 21.9566 117.698 22.453C117.69 22.9606 117.377 22.9121 117.057 22.9083C116.129 22.9083 115.201 22.9457 114.273 22.8934C113.639 22.8598 113.457 23.0688 113.464 23.6996C113.498 26.2636 113.464 28.8239 113.486 31.3879C113.486 31.903 113.464 32.1978 112.793 32.1941C112.122 32.1941 112.096 31.8843 112.1 31.373C112.115 28.809 112.085 26.2487 112.122 23.6846C112.13 23.0427 111.928 22.8636 111.314 22.8934C110.356 22.9382 109.394 22.9046 108.436 22.9046C108.146 22.9046 107.866 22.9457 107.848 22.4941C107.833 22.0313 108.067 21.9716 108.436 21.9753C109.875 21.9827 111.317 21.9753 112.756 21.9753V21.979Z" fill="#294473"/>
<path d="M69.4983 27.066C69.4983 25.6254 69.5281 24.181 69.4834 22.7404C69.4648 22.188 69.6846 22.0872 70.1468 22.1171C70.5791 22.1469 71.0338 22.0014 71.0226 22.7441C70.989 25.2447 71.0412 27.7453 70.989 30.2421C70.9741 30.9886 71.2015 31.1677 71.9058 31.1378C73.1506 31.0856 74.4028 31.1266 75.6513 31.1266C76.0128 31.1266 76.3296 31.0931 76.3408 31.6454C76.3482 32.1903 76.0613 32.1791 75.6811 32.1754C73.855 32.1679 72.0326 32.1455 70.2101 32.1866C69.5728 32.2015 69.4722 31.9403 69.4834 31.3954C69.5095 29.9547 69.4908 28.5104 69.4908 27.0697C69.4946 27.0697 69.4983 27.0697 69.502 27.0697L69.4983 27.066Z" fill="#1C3C74"/>
<path d="M181.229 27.0772C181.229 25.6067 181.259 24.1362 181.218 22.6657C181.2 22.0574 181.483 22.0014 181.967 21.9939C182.459 21.9865 182.631 22.1358 182.627 22.6508C182.605 25.6254 182.608 28.6 182.631 31.5708C182.634 32.1344 182.373 32.1829 181.93 32.1792C181.501 32.1792 181.203 32.1605 181.218 31.5857C181.252 30.0854 181.229 28.5813 181.229 27.0772Z" fill="#294473"/>
<path d="M136.533 27.1108C136.533 28.5813 136.503 30.0555 136.548 31.5223C136.567 32.1344 136.291 32.1717 135.81 32.1829C135.311 32.1941 135.154 32.0411 135.158 31.5335C135.18 28.5589 135.18 25.5843 135.158 22.6097C135.154 22.0686 135.382 21.979 135.844 21.9902C136.276 22.0014 136.563 22.0313 136.552 22.5986C136.518 24.1026 136.541 25.603 136.541 27.1071L136.533 27.1108Z" fill="#294473"/>
<path d="M147.002 16.2986C146.547 16.4441 146.212 16.321 145.94 15.9067C145.638 15.4551 145.273 15.0483 144.945 14.6116C144.714 14.3056 144.512 13.9435 144.039 14.0779C143.528 14.2235 143.786 14.6601 143.745 14.9662C143.704 15.2797 143.726 15.6044 143.73 15.9253C143.73 16.1941 143.633 16.3396 143.342 16.3471C143.018 16.3546 142.887 16.2239 142.891 15.8918C142.902 14.481 142.899 13.0739 142.899 11.6632C142.899 11.4392 142.876 11.1742 143.204 11.178C143.968 11.1854 144.755 11.0361 145.496 11.2563C146.555 11.5661 146.804 12.8575 145.888 13.5069C145.295 13.9249 145.425 14.1675 145.791 14.5929C146.208 15.0744 146.573 15.6006 146.957 16.112C146.991 16.1567 146.987 16.2314 146.998 16.2911L147.002 16.2986ZM143.722 12.641C143.853 12.9732 143.405 13.6524 144.274 13.63C145.012 13.6114 145.504 13.2605 145.556 12.5066C145.616 11.6482 144.922 11.7154 144.367 11.652C143.551 11.5587 143.756 12.1558 143.722 12.6373V12.641Z" fill="#294473"/>
<path d="M105.694 16.3322C105.257 16.3322 105.272 16.1082 105.395 15.8246C106.01 14.4213 106.636 13.018 107.236 11.6072C107.374 11.2862 107.568 11.1892 107.896 11.1855C108.269 11.1855 108.373 11.4355 108.496 11.7042C109.115 13.0366 109.745 14.369 110.352 15.7052C110.43 15.8806 110.702 16.1194 110.404 16.2762C110.155 16.4068 109.838 16.3882 109.648 16.0821C109.614 16.0261 109.596 15.9664 109.562 15.9104C109.342 15.5708 109.364 14.9699 108.936 14.899C108.25 14.787 107.531 14.8169 106.834 14.8841C106.42 14.9214 106.465 15.429 106.282 15.7126C106.118 15.9627 106.115 16.3732 105.69 16.3284L105.694 16.3322ZM107.818 11.7602C107.464 12.7269 107.199 13.4584 106.916 14.2384H108.805C108.492 13.4546 108.205 12.7269 107.818 11.7602Z" fill="#294473"/>
<path d="M192.127 11.1929C192.406 11.1742 192.6 11.2377 192.734 11.5325C193.383 12.9582 194.057 14.3727 194.721 15.7947C194.799 15.9627 194.933 16.1791 194.691 16.2836C194.534 16.3508 194.288 16.3396 194.147 16.2575C194.001 16.1717 193.889 15.9664 193.845 15.791C193.621 14.9512 193.066 14.8243 192.272 14.8206C191.385 14.8206 190.714 14.9102 190.517 15.9216C190.438 16.3172 190.081 16.4441 189.771 16.2986C189.417 16.1306 189.73 15.8432 189.816 15.6454C190.364 14.3504 190.938 13.0665 191.501 11.7751C191.627 11.484 191.706 11.1444 192.134 11.1966L192.127 11.1929ZM192.149 11.805C191.84 12.6037 191.597 13.1896 191.392 13.7868C191.337 13.951 191.132 14.2608 191.556 14.2682C192.033 14.2757 192.6 14.3839 192.958 14.1675C193.219 14.0107 192.812 13.5031 192.693 13.156C192.559 12.7642 192.384 12.3872 192.149 11.8087V11.805Z" fill="#294473"/>
<path d="M156.122 16.097C156.014 16.4591 155.727 16.3396 155.495 16.3023C155.287 16.2687 155.19 16.0784 155.141 15.888C154.907 14.9811 154.303 14.7982 153.427 14.8281C152.622 14.8542 151.981 14.899 151.802 15.8507C151.739 16.1978 151.478 16.4702 151.109 16.3135C150.61 16.1045 151.027 15.7686 151.12 15.5409C151.649 14.272 152.216 13.0217 152.764 11.7602C152.894 11.4654 152.98 11.1817 153.412 11.1817C153.833 11.1817 153.949 11.443 154.087 11.7415C154.705 13.0739 155.331 14.4063 155.954 15.7387C156.01 15.8544 156.058 15.9739 156.114 16.097H156.122ZM154.348 14.272C154.094 13.4248 153.848 12.6634 153.367 11.8983C153.062 12.7306 152.79 13.4621 152.492 14.272H154.348Z" fill="#294473"/>
<path d="M71.3022 13.8353C71.3022 15.3506 70.2176 16.6046 68.9319 16.5785C67.6461 16.5524 66.6734 15.3207 66.6771 13.7308C66.6846 12.1782 67.7169 10.9727 69.0325 10.9839C70.2847 10.9951 71.3059 12.279 71.3022 13.8316V13.8353ZM67.2399 13.742C67.2399 14.1302 67.2846 14.5034 67.4449 14.8654C67.743 15.5297 68.1902 15.9888 68.958 16.0112C69.7406 16.0299 70.1804 15.5447 70.4934 14.9065C70.6947 14.4959 70.7655 14.0555 70.7282 13.5965C70.6388 12.4208 69.8748 11.5437 68.9505 11.5624C67.989 11.5811 67.2362 12.5365 67.2399 13.742Z" fill="#294473"/>
<path d="M160.571 13.7607C160.569 11.9667 161.457 11.112 163.236 11.1966C163.445 11.2078 163.844 11.0287 163.814 11.4542C163.788 11.8162 163.415 11.6744 163.188 11.6893C162.837 11.7117 162.48 11.7378 162.133 11.693C161.47 11.6072 161.362 11.9132 161.339 12.5104C161.313 13.2232 161.507 13.4807 162.249 13.4434C162.632 13.421 163.378 13.156 163.378 13.6599C163.378 14.1115 162.614 13.8801 162.222 13.8502C161.462 13.7942 161.306 14.0928 161.343 14.787C161.376 15.4028 161.302 15.9515 162.211 15.8134C162.681 15.7425 163.169 15.7984 163.65 15.8059C163.803 15.8059 163.993 15.8022 164.011 16.0186C164.037 16.2874 163.836 16.3247 163.635 16.3247C162.77 16.3247 161.906 16.3135 161.041 16.3247C160.642 16.3284 160.568 16.1157 160.571 15.7761C160.583 15.1043 160.571 14.4287 160.571 13.7532V13.7607Z" fill="#294473"/>
<path d="M84.2157 13.6898C84.2157 13.4658 84.1933 13.2382 84.2194 13.018C84.2865 12.4245 83.9138 11.5288 84.3871 11.3011C85.0915 10.9615 86.0195 11.0772 86.8282 11.2713C87.4618 11.4243 87.8009 11.9132 87.7376 12.5664C87.6519 13.4696 86.981 14.0518 86.2096 14.0107C84.976 13.9436 84.9499 14.5706 85.0431 15.4402C85.058 15.5969 85.0431 15.7611 85.0431 15.9216C85.0431 16.1754 84.9723 16.3471 84.6704 16.3583C84.335 16.3695 84.2157 16.2165 84.2194 15.8992C84.2269 15.164 84.2194 14.425 84.2194 13.6898H84.212H84.2157ZM85.0468 12.6298C85.1362 13.0105 84.7561 13.7047 85.6841 13.6338C86.3996 13.5778 86.8245 13.2083 86.873 12.5141C86.9363 11.6557 86.2543 11.7154 85.6878 11.652C84.8605 11.5549 85.0729 12.1521 85.0468 12.6298Z" fill="#294473"/>
<path d="M61.5118 13.7943C61.5118 14.4996 61.5118 15.205 61.5118 15.9104C61.5118 16.1008 61.5006 16.321 61.2136 16.2799C61.0273 16.2538 60.9565 16.1194 60.9565 15.9403C60.9565 15.8432 60.9565 15.7462 60.9527 15.6529C60.8558 13.6524 60.8558 13.6636 58.7949 13.8428C58.3775 13.8801 58.2396 14.007 58.2657 14.4175C58.2955 14.9288 58.2769 15.4439 58.2769 15.9552C58.2769 16.1306 58.2172 16.2762 58.016 16.2762C57.8296 16.2762 57.7253 16.1642 57.7253 15.9739C57.7253 14.4996 57.7216 13.0254 57.7253 11.5512C57.7253 11.3347 57.8036 11.1668 58.057 11.1929C58.2657 11.2116 58.2769 11.387 58.2843 11.5475C58.288 11.6445 58.2843 11.7415 58.2918 11.8348C58.3365 12.3648 58.057 13.2195 58.4222 13.3576C59.1005 13.6114 59.9316 13.4621 60.6956 13.4696C60.9826 13.4696 60.9453 13.2344 60.949 13.0515C60.9565 12.6037 60.949 12.1521 60.9602 11.7042C60.9677 11.4952 60.8968 11.2116 61.2323 11.1929C61.5938 11.1742 61.5155 11.4728 61.5192 11.6744C61.5304 12.3797 61.523 13.0851 61.523 13.7905L61.5118 13.7943Z" fill="#294473"/>
<path d="M136.407 16.3919C135.877 16.3919 135.493 16.3807 135.139 16.1978C134.972 16.112 134.953 15.9403 135.001 15.7835C135.072 15.5633 135.225 15.6305 135.378 15.6939C135.859 15.888 136.343 16.0261 136.869 15.8395C137.178 15.7275 137.487 15.6193 137.569 15.261C137.655 14.8729 137.469 14.5519 137.163 14.3541C136.712 14.0592 136.213 13.8316 135.754 13.5442C135.24 13.2195 134.83 12.7642 135.009 12.1185C135.203 11.4243 135.795 11.1295 136.481 11.0959C136.861 11.0772 137.245 11.1481 137.625 11.1966C137.838 11.2265 137.99 11.3758 137.949 11.5922C137.886 11.9058 137.662 11.7378 137.498 11.693C136.872 11.5251 136.093 11.2899 135.806 12.0214C135.471 12.8687 136.332 13.1113 136.91 13.421C137.077 13.5106 137.267 13.5703 137.428 13.6674C138.002 14.0145 138.464 14.4399 138.303 15.205C138.147 15.944 137.599 16.2351 136.932 16.362C136.716 16.4031 136.485 16.3881 136.407 16.3956V16.3919Z" fill="#294473"/>
<path d="M77.2726 16.3807C77.3434 16.3844 77.1458 16.3956 76.9595 16.3583C76.6427 16.2911 76.0949 16.3471 76.2365 15.8433C76.3744 15.3431 76.7657 15.8209 77.0229 15.8582C77.3806 15.9104 77.7161 15.944 78.0627 15.847C78.4093 15.75 78.7484 15.6343 78.8043 15.205C78.8565 14.8094 78.6627 14.5109 78.3496 14.313C77.9173 14.0443 77.444 13.8353 77.0117 13.5629C76.4676 13.2195 76.0427 12.7567 76.2551 12.0588C76.4564 11.4019 77.0303 11.1593 77.6713 11.0921C77.8614 11.0735 78.0627 11.0735 78.2415 11.122C78.5732 11.2116 79.2142 11.0175 79.1323 11.5437C79.054 12.0364 78.5807 11.5512 78.2825 11.5549C77.7682 11.5624 77.1533 11.4542 76.9595 12.0513C76.7694 12.641 77.2875 12.9657 77.7384 13.227C78.0142 13.3875 78.3235 13.4845 78.603 13.6413C79.1882 13.966 79.6913 14.3877 79.5422 15.1491C79.382 15.959 78.7745 16.2799 78.0179 16.3732C77.8614 16.3919 77.6974 16.3732 77.2763 16.3732L77.2726 16.3807Z" fill="#294473"/>
<path d="M168.707 13.7159C168.707 13.1374 168.692 12.5589 168.715 11.9841C168.729 11.6744 168.547 11.2004 169.139 11.2153C169.669 11.2302 169.497 11.6632 169.501 11.9394C169.523 12.9023 169.572 13.8689 169.493 14.8244C169.423 15.6678 169.747 15.8955 170.518 15.7985C170.928 15.7462 171.349 15.7947 171.767 15.7985C171.968 15.7985 172.177 15.8171 172.162 16.0858C172.151 16.2725 172.005 16.3396 171.823 16.3359C170.925 16.3322 170.03 16.3284 169.132 16.3322C168.707 16.3322 168.707 16.0411 168.707 15.7388C168.707 15.0632 168.707 14.3914 168.707 13.7159Z" fill="#294473"/>
<path d="M114.921 13.7457C114.921 13.1075 114.91 12.4656 114.925 11.8274C114.932 11.5699 114.809 11.219 115.294 11.2153C115.737 11.2153 115.708 11.5101 115.708 11.8013C115.708 12.9209 115.734 14.0369 115.704 15.1565C115.689 15.6641 115.853 15.8358 116.356 15.7985C116.897 15.7611 117.441 15.791 117.981 15.7985C118.171 15.7985 118.395 15.8059 118.372 16.0821C118.357 16.2725 118.19 16.3284 118.022 16.3284C117.128 16.3284 116.233 16.3098 115.342 16.3284C114.888 16.3359 114.929 16.0448 114.929 15.7574C114.929 15.0856 114.929 14.4138 114.929 13.7457H114.925H114.921Z" fill="#294473"/>
<path d="M102.477 11.3944C102.138 11.7789 101.721 11.652 101.389 11.6072C100.472 11.4878 100.249 11.8759 100.308 12.7268C100.379 13.7121 100.327 14.7087 100.319 15.7014C100.319 15.9739 100.398 16.3322 99.9431 16.321C99.4847 16.306 99.6039 15.9403 99.6002 15.6753C99.589 14.6191 99.548 13.5629 99.6114 12.5104C99.6561 11.7751 99.4027 11.5661 98.6946 11.5997C98.307 11.6184 97.5616 11.8834 97.5579 11.3907C97.5579 10.9428 98.3032 11.2116 98.7095 11.1929C99.6971 11.1481 100.688 11.1742 101.68 11.1854C101.941 11.1854 102.243 11.0921 102.477 11.3944Z" fill="#294473"/>
<path d="M181.475 11.2862H186.488C186.082 11.7901 185.661 11.6557 185.329 11.6109C184.408 11.4878 184.185 11.8796 184.244 12.7306C184.315 13.7159 184.27 14.7124 184.259 15.7052C184.259 15.9627 184.371 16.3434 183.894 16.3135C183.503 16.2911 183.596 15.9664 183.592 15.7313C183.585 14.6452 183.551 13.5554 183.6 12.4693C183.629 11.7789 183.372 11.5736 182.713 11.6147C182.299 11.6408 181.833 11.7714 181.475 11.29V11.2862Z" fill="#294473"/>
<path d="M177.081 13.8092C177.081 14.481 177.081 15.1528 177.081 15.8246C177.081 16.1045 177.055 16.3471 176.683 16.3284C176.362 16.3098 176.358 16.0821 176.358 15.8507C176.358 14.4437 176.358 13.0329 176.355 11.6258C176.355 11.3832 176.388 11.1929 176.705 11.1817C177.1 11.1705 177.081 11.4355 177.081 11.6968C177.081 12.4021 177.081 13.1038 177.081 13.8092Z" fill="#294473"/>
<path d="M130.119 13.7457C130.119 14.4138 130.119 15.0856 130.119 15.7537C130.119 16.0037 130.153 16.2986 129.78 16.321C129.4 16.3433 129.408 16.0709 129.408 15.8059C129.408 14.4362 129.408 13.0627 129.408 11.693C129.408 11.4318 129.393 11.1668 129.788 11.1892C130.183 11.2116 130.123 11.4952 130.123 11.7415C130.131 12.4096 130.123 13.0814 130.123 13.7495L130.119 13.7457Z" fill="#294473"/>
<path d="M93.0782 13.7905C93.0782 14.4959 93.0782 15.1976 93.0782 15.903C93.0782 16.0933 93.0745 16.2986 92.8061 16.321C92.5043 16.3508 92.4185 16.1679 92.4148 15.9104C92.4074 14.4698 92.4036 13.0329 92.3999 11.5922C92.3999 11.3347 92.4819 11.1593 92.7875 11.1817C93.1415 11.2078 93.0633 11.4728 93.067 11.6781C93.0745 12.3835 93.067 13.0851 93.067 13.7905H93.0707H93.0782Z" fill="#294473"/>
</g>
<defs>
<clipPath id="clip0_249_533">
<rect width="195" height="48" fill="white"/>
</clipPath>
</defs>
</svg>
